<svg width="226" height="226" viewBox="0 0 226 226" fill="none" xmlns="http://www.w3.org/2000/svg">
<rect width="226" height="226" fill="#D9D9D9"/>
<circle cx="113.5" cy="113.5" r="78.5" fill="url(#paint0_linear_5_28)"/>
<ellipse cx="82.5" cy="92" rx="20.5" ry="21" fill="white"/>
<ellipse cx="144.5" cy="92" rx="20.5" ry="21" fill="white"/>
<ellipse cx="113.5" cy="156" rx="14.5" ry="25" fill="url(#paint1_radial_5_28)"/>
<path d="M34.5 192C34.5 192 45.5 163.5 45.5 147.5C45.5 131.5 34.5 103 34.5 103" stroke="#E5D044" stroke-width="37" stroke-linecap="round"/>
<path d="M192 103C192 103 181 131.5 181 147.5C181 163.5 192 192 192 192" stroke="#E5D044" stroke-width="37" stroke-linecap="round"/>
<path d="M14 188H63.5L113.5 194.5L163 188H213V214.5H14V188Z" fill="#D9D9D9"/>
<defs>
<linearGradient id="paint0_linear_5_28" x1="113" y1="192" x2="113" y2="35" gradientUnits="userSpaceOnUse">
<stop stop-color="#E8D242"/>
<stop offset="1" stop-color="#25548D"/>
</linearGradient>
<radialGradient id="paint1_radial_5_28" cx="0" cy="0" r="1" gradientUnits="userSpaceOnUse" gradientTransform="translate(113 181) scale(19 13.9263)">
<stop offset="0.9999" stop-color="#A85E60"/>
<stop offset="1" stop-color="#574E00"/>
</radialGradient>
</defs>
</svg>
